<?xml version="1.0" encoding="utf-8"?>
<!-- Generator: Adobe Illustrator 24.1.2, SVG Export Plug-In . SVG Version: 6.00 Build 0)  -->
<svg version="1.1" id="Layer_1" xmlns="http://www.w3.org/2000/svg" xmlns:xlink="http://www.w3.org/1999/xlink" x="0px" y="0px"
	 viewBox="0 0 718.7 253.7" style="enable-background:new 0 0 718.7 253.7;" xml:space="preserve">
<style type="text/css">
	.st0{fill:#00003f;}
</style>
<path class="st0" d="M170.2,154.1c-2-12.2-6.1-24.7-12.6-38.2c-13.4-27.8-29.2-53.6-46-81l0,0c-6.9-11.3-14.1-23-21.1-34.9
	C87,5.9,83.4,11.8,79.9,17.5l0,0.1c-1.1,1.8-2.2,3.6-3.2,5.3l0,0c-10.5,17.4-21.4,35.4-32,53.6c-8.8,15.2-16.3,29.3-22.9,43.3
	c-7.9,16.6-12,34.9-11.7,53.3c0.6,41.8,29.4,73.9,71.7,79.9c3.3,0.5,6.6,0.7,9.9,0.7c16.7,0,33.7-5.9,47.7-16.7
	c14.1-10.7,24.3-25.7,29-42.7C171.8,181.2,172.5,167.5,170.2,154.1z M155.1,189.8c-3.9,14.1-12.4,26.6-24.1,35.5
	c-11.3,8.8-25.2,13.7-39.6,13.9l0,0c-2.7,0-5.5-0.2-8.2-0.6c-35.1-5-59-31.7-59.5-66.4c-0.2-15.3,3.1-30.5,9.7-44.3
	c5.5-11.6,11.7-23.4,19-36C61.2,76.9,70.2,62,79,47.5c0.8-1.3,1.5-2.5,2.3-3.8l0.3-0.5c2.9-4.8,5.9-9.7,8.9-14.7
	c5.8,9.9,11.8,19.6,17.5,28.9v0l0,0c13.9,22.7,27,44.1,38.2,67.2c5.4,11.2,8.8,21.6,10.5,31.7C158.5,167.6,158,179,155.1,189.8z"/>
<g id="Group_6" transform="translate(794 203)">
	<g>
		<path class="st0" d="M-597.6-80.1v-59h13.6v59H-597.6z"/>
		<path class="st0" d="M-575.6-80.1v-59h12.9l28.7,38.1v-38.1h13.1v59h-13.2l-28.2-37.7v37.7H-575.6z"/>
		<path class="st0" d="M-512.6-94.2c5.4,2.5,9.7,3.7,13.1,3.7c2.6,0,4.8-0.8,6.6-2.3c1.2-0.9,1.7-1.9,1.7-3c0-1.4-0.7-2.8-2.2-4.1
			c-1.5-1.3-3-2.3-4.6-3c-5.3-2.4-9-4.6-11-6.5c-3.4-3-5.1-7-5.1-12.2c0-5.3,1.8-9.7,5.3-13.2c2-2,4.3-3.5,7-4.5
			c2.7-1,5.5-1.5,8.5-1.5c3.6,0,6.9,0.6,9.9,1.9l3.2,1.1l0,12.5c-2.3-1.3-4.3-2.2-6-2.6c-1.7-0.5-3.6-0.7-5.8-0.7
			c-2.2,0-4,0.6-5.6,1.7c-1.5,1.1-2.3,2.6-2.3,4.2c0,1.4,0.5,2.8,1.6,4.1c1.3,1.3,2.9,2.4,4.9,3.3s4.1,1.9,6.4,2.9
			c2.3,1,4.1,2.1,5.4,3.2c2.7,2.8,4.1,6.5,4.1,11.1c0,2.5-0.4,4.9-1.2,7.2c-0.9,2.3-2.1,4.2-3.7,5.8c-4,4-9.5,6-16.6,6
			c-1.7,0-3.3-0.1-4.8-0.3c-1.5-0.2-2.9-0.5-4.2-0.8c-0.9-0.2-2.4-0.6-4.6-1.3V-94.2z"/>
		<path class="st0" d="M-415.4-102.8c0,3.4-0.5,6.5-1.5,9.4s-2.5,5.2-4.3,6.9c-2.3,2.3-5.5,4.1-9.5,5.5c-4,1.4-8.2,2.1-12.5,2.1
			c-2.8,0-5.6-0.3-8.3-0.9c-2.7-0.6-5.3-1.5-7.6-2.7c-2.3-1.2-4.3-2.5-5.8-4c-1.9-1.9-3.3-4.3-4.4-7.2c-1-2.8-1.6-5.9-1.6-9.2v-36.3
			h13.6v34.2c0,2.9,0.6,5.5,1.7,7.7c1.1,2.2,2.8,3.9,4.9,5.1c2.1,1.2,4.7,1.8,7.5,1.8c4.3,0,7.7-1.3,10.3-4
			c2.6-2.7,3.9-6.2,3.9-10.6v-34.2h13.6V-102.8z"/>
		<path class="st0" d="M-407.3-80.1v-59h13.6v49h26.9v10H-407.3z"/>
		<path class="st0" d="M-360.2-80.1v-59h13.6v59H-360.2z"/>
		<path class="st0" d="M-338.3-80.1v-59h12.9l28.7,38.1v-38.1h13.1v59h-13.2l-28.2-37.7v37.7H-338.3z"/>
		<path class="st0" d="M-275.2-80.1v-59h38.3v10.4h-24.5v12.7h23.4v10.2h-23.4v15.3h24.6v10.4H-275.2z"/>
	</g>
	<g>
		<path class="st0" d="M-591.2-48.5h9.7c7.2,0,10.3,4.3,10.3,8.5c0,3.5-1.6,5.7-5.1,7.2v0.1c5,0.9,8,4.2,8,8.7
			c0,4.1-3.1,8.9-11.5,8.9h-11.5V-48.5z M-586.4-34.2h3.2c4.8,0,7.1-1.8,7.1-5.3c0-2.5-1.4-4.7-5.8-4.7h-4.4V-34.2z M-586.4-19.4h6
			c5.6,0,7.2-2.8,7.2-5.3c0-3-2.4-5.2-7.4-5.2h-5.8V-19.4z"/>
		<path class="st0" d="M-559.8-15.1h-4.4v-33.4h4.4V-15.1z"/>
		<path class="st0" d="M-531.3-26.3c0,7-4.9,11.7-11.9,11.7c-6.8,0-11.6-4.9-11.6-11.7c0-6.3,5-11.2,11.6-11.2
			C-536.3-37.6-531.3-32.9-531.3-26.3z M-550.4-26.3c0,4.7,2.9,7.7,7.1,7.7c4.6,0,7.5-2.9,7.5-7.7c0-4.3-3.1-7.3-7.5-7.3
			C-547.4-33.7-550.4-30.6-550.4-26.3z"/>
		<path class="st0" d="M-504.3-26.3c0,7-4.9,11.7-11.9,11.7c-6.8,0-11.6-4.9-11.6-11.7c0-6.3,5-11.2,11.6-11.2
			C-509.3-37.6-504.3-32.9-504.3-26.3z M-523.3-26.3c0,4.7,2.9,7.7,7.1,7.7c4.6,0,7.5-2.9,7.5-7.7c0-4.3-3.1-7.3-7.5-7.3
			C-520.3-33.7-523.3-30.6-523.3-26.3z"/>
		<path class="st0" d="M-480.4-15.1h-9.3c-6.6,0-10.7-4.5-10.7-11.5c0-6.4,4.6-10.9,11-10.9c1.5,0,2.8,0.2,4.6,0.9v-11.9h4.4V-15.1z
			 M-484.8-32.8c-1.5-0.6-2.6-0.8-4.1-0.8c-4.2,0-7.1,3-7.1,7.6c0,4.1,1.7,7.2,6.7,7.2h4.4V-32.8z"/>
		<path class="st0" d="M-430.9-17.4c-4.5,2-8.1,2.7-12.7,2.7c-10.2,0-17.8-7.2-17.8-17c0-9.8,7.7-17.3,17.9-17.3
			c3.9,0,6.7,0.6,11.9,2.8v4.9c-3.9-2.2-8-3.3-12-3.3c-7.3,0-12.9,5.5-12.9,12.8c0,7.4,5.6,12.7,13.5,12.7c2.6,0,4.9-0.6,7.3-1.3
			v-6.9h-6.4v-4.3h11.2V-17.4z"/>
		<path class="st0" d="M-420.1-15.1h-4.4v-33.4h4.4V-15.1z"/>
		<path class="st0" d="M-399.9-15.1v-2.8c-1.8,2-4.4,3.2-6.5,3.2c-4.5,0-7.6-3.2-7.6-8.8v-13.7h4.4v14c0,3.1,1.5,4.9,4.5,4.9
			c2,0,3.8-1.1,5.2-3.1v-15.7h4.4v22H-399.9z"/>
		<path class="st0" d="M-373.2-31.4c-2.5-1.7-4.2-2.2-6.1-2.2c-4,0-6.7,3-6.7,7.4c0,4.6,2.9,7.3,7.4,7.3c1.9,0,3.6-0.5,5.8-1.5v4.3
			c-1.5,0.7-4.3,1.3-6.6,1.3c-6.6,0-11.2-4.6-11.2-11c0-7.3,4.2-11.9,10.9-11.9c2.5,0,4.3,0.6,6.4,1.5V-31.4z"/>
		<path class="st0" d="M-345.7-26.3c0,7-4.9,11.7-11.9,11.7c-6.8,0-11.6-4.9-11.6-11.7c0-6.3,5-11.2,11.6-11.2
			C-350.7-37.6-345.7-32.9-345.7-26.3z M-364.7-26.3c0,4.7,2.9,7.7,7.1,7.7c4.6,0,7.5-2.9,7.5-7.7c0-4.3-3.1-7.3-7.5-7.3
			C-361.7-33.7-364.7-30.6-364.7-26.3z"/>
		<path class="st0" d="M-328-31.4c-2.4-1.6-4.8-2.3-6.4-2.3c-1.8,0-2.9,0.8-2.9,2c0,1,1.5,2.2,5.3,4.4c3.6,2.4,4.9,3.9,4.9,6.2
			c0,3.9-3.1,6.5-7.3,6.5c-2.7,0-4.8-0.5-7.6-2v-4.7c2.8,2,5.4,2.9,7.2,2.9c1.8-0.1,3.2-0.9,3.2-2.5c0-3-10.3-4.7-10.3-10.6
			c0-3.7,2.8-6,7.3-6c2.1,0,4.2,0.6,6.5,1.8V-31.4z"/>
		<path class="st0" d="M-303.6-17.3c-2.6,1.8-5,2.6-8.8,2.6c-6.9,0-10.7-5.6-10.7-11.7c0-6.7,4.2-11.2,10.3-11.2
			c5.8,0,9.6,4,9.6,12.1h-15.5c0.7,4.4,3.2,6.6,7.4,6.6c2.6,0,5.1-1,7.7-2.6V-17.3z M-307.5-28.4c-0.1-3.3-2.1-5.4-5.1-5.4
			c-3.3,0-5.3,2-5.9,5.4H-307.5z"/>
		<path class="st0" d="M-274.1-48.5c7.3,0,10.6,4.3,10.6,9.6c0,5.2-3.5,9.4-11.3,9.4h-5v14.5h-4.8v-33.4H-274.1z M-279.7-33.9h5.4
			c3.6,0,5.9-1.9,5.9-5.2c0-2.5-1.3-5.1-5.7-5.1h-5.6V-33.9z"/>
		<path class="st0" d="M-255.2-37.1v5h0.1c2.2-3.9,4.3-5.5,6.4-5.5c1.8,0,3.4,0.8,5.2,2.5l-2.3,3.8c-1.3-1.3-3-2.2-4.1-2.2
			c-3,0-5.3,3-5.3,6.8v11.5h-4.4v-22H-255.2z"/>
		<path class="st0" d="M-223.1-17.3c-2.6,1.8-5,2.6-8.8,2.6c-6.9,0-10.7-5.6-10.7-11.7c0-6.7,4.2-11.2,10.3-11.2
			c5.8,0,9.6,4,9.6,12.1h-15.5c0.7,4.4,3.2,6.6,7.4,6.6c2.6,0,5.1-1,7.7-2.6V-17.3z M-227-28.4c-0.1-3.3-2.1-5.4-5.1-5.4
			c-3.3,0-5.3,2-5.9,5.4H-227z"/>
		<path class="st0" d="M-199-15.1h-9.3c-6.6,0-10.7-4.5-10.7-11.5c0-6.4,4.6-10.9,11-10.9c1.5,0,2.8,0.2,4.6,0.9v-11.9h4.4V-15.1z
			 M-203.3-32.8c-1.5-0.6-2.6-0.8-4.1-0.8c-4.2,0-7.1,3-7.1,7.6c0,4.1,1.7,7.2,6.7,7.2h4.4V-32.8z"/>
		<path class="st0" d="M-190.7-41.2c-1.4,0-2.6-1.2-2.6-2.6s1.2-2.6,2.6-2.6s2.6,1.2,2.6,2.6S-189.3-41.2-190.7-41.2z M-188.5-15.1
			h-4.4v-22h4.4V-15.1z"/>
		<path class="st0" d="M-166.1-31.4c-2.5-1.7-4.2-2.2-6.1-2.2c-4,0-6.7,3-6.7,7.4c0,4.6,2.9,7.3,7.4,7.3c1.9,0,3.6-0.5,5.8-1.5v4.3
			c-1.5,0.7-4.3,1.3-6.6,1.3c-6.6,0-11.2-4.6-11.2-11c0-7.3,4.2-11.9,10.9-11.9c2.5,0,4.3,0.6,6.4,1.5V-31.4z"/>
		<path class="st0" d="M-155.7-37.1h7v3.9h-7v11.3c0,2.6,1.9,3.3,3.1,3.3c1.6,0,3.2-0.5,4.9-1.6v4.1c-1.5,0.8-3.9,1.5-5.3,1.5
			c-4.8,0-7.2-2.9-7.2-6.9v-11.6h-3.8v-0.5l8.2-8V-37.1z"/>
		<path class="st0" d="M-142.2-41.2c-1.4,0-2.6-1.2-2.6-2.6s1.2-2.6,2.6-2.6s2.6,1.2,2.6,2.6S-140.7-41.2-142.2-41.2z M-140-15.1
			h-4.4v-22h4.4V-15.1z"/>
		<path class="st0" d="M-111.5-26.3c0,7-4.9,11.7-11.9,11.7c-6.8,0-11.6-4.9-11.6-11.7c0-6.3,5-11.2,11.6-11.2
			C-116.5-37.6-111.5-32.9-111.5-26.3z M-130.6-26.3c0,4.7,2.9,7.7,7.1,7.7c4.6,0,7.5-2.9,7.5-7.7c0-4.3-3.1-7.3-7.5-7.3
			C-127.6-33.7-130.6-30.6-130.6-26.3z"/>
		<path class="st0" d="M-102.4-34.2L-102.4-34.2c1.8-2.1,4.2-3.3,6.7-3.3c4.2,0,7.5,2.8,7.5,8.9v13.6h-4.4v-13.6
			c0-3.2-1.7-5.3-4.3-5.3c-1.9,0-3.4,0.9-5.5,3.2v15.8h-4.4v-22h4.4V-34.2z"/>
	</g>
</g>
<g>
	<path class="st0" d="M131,116.2v100.7C131,216.9,176,176.3,131,116.2z"/>
</g>
</svg>
