<svg xmlns="http://www.w3.org/2000/svg" xmlns:xlink="http://www.w3.org/1999/xlink" width="626.077" height="271.703" viewBox="0 0 626.077 271.703">
  <defs>
    <filter id="Subtraction_3" x="0" y="0" width="179.494" height="271.703" filterUnits="userSpaceOnUse">
      <feOffset dy="3" input="SourceAlpha"/>
      <feGaussianBlur stdDeviation="3" result="blur"/>
      <feFlood flood-opacity="0.161"/>
      <feComposite operator="in" in2="blur"/>
      <feComposite in="SourceGraphic"/>
    </filter>
  </defs>
  <g id="Group_9" data-name="Group 9" transform="translate(-1201.923 -368.92)">
    <g transform="matrix(1, 0, 0, 1, 1201.92, 368.92)" filter="url(#Subtraction_3)">
      <path id="Subtraction_3-2" data-name="Subtraction 3" d="M-1908.445,253.7a70.227,70.227,0,0,1-9.865-.7c-42.26-6.026-71.065-38.143-71.678-79.918a119.812,119.812,0,0,1,11.694-53.32c6.595-13.968,14.1-28.13,22.93-43.3,10.607-18.2,21.5-36.172,32.03-53.556l.008-.014q1.6-2.64,3.22-5.316l.046-.076c3.466-5.719,7.047-11.629,10.566-17.508,6.988,11.855,14.161,23.552,21.1,34.863l.021.034c16.753,27.323,32.577,53.131,45.973,80.953,6.519,13.543,10.637,26.047,12.591,38.227a94.07,94.07,0,0,1-1.928,40.185,80.8,80.8,0,0,1-29.009,42.729C-1874.79,247.768-1891.729,253.7-1908.445,253.7Zm-.137-14.5a65.688,65.688,0,0,0,39.615-13.879,67.115,67.115,0,0,0,24.093-35.487,78.129,78.129,0,0,0,1.6-33.376c-1.622-10.117-5.043-20.5-10.457-31.749-11.122-23.1-24.261-44.53-38.171-67.218l-.028-.045,0-.007c-5.744-9.367-11.684-19.052-17.516-28.946-2.966,4.952-5.967,9.9-8.869,14.692l-.3.493q-1.168,1.927-2.322,3.833c-8.75,14.442-17.8,29.376-26.608,44.492-7.337,12.593-13.567,24.355-19.045,35.958a99.5,99.5,0,0,0-9.712,44.285c.51,34.7,24.433,61.369,59.531,66.375a58.34,58.34,0,0,0,8.193.58h0Z" transform="translate(1999 6)" fill="#fff"/>
    </g>
    <g id="Group_6" data-name="Group 6" transform="translate(794 203)">
      <text id="INSULINE" transform="translate(642 326)" fill="#fff" font-size="85" font-family="HelveticaNeue, Helvetica Neue"><tspan x="0" y="0">INSULINE</tspan></text>
      <text id="Diabetes_Manager" data-name="Diabetes Manager" transform="translate(646 391)" fill="#fff" font-size="49" font-family="HelveticaNeue, Helvetica Neue" font-weight="300"><tspan x="0" y="0">Diabetes Manager</tspan></text>
    </g>
  </g>
</svg>
