<svg xmlns="http://www.w3.org/2000/svg" xmlns:xlink="http://www.w3.org/1999/xlink" width="747" height="303" viewBox="0 0 747 303">
  <defs>
    <linearGradient id="linear-gradient" x1="0.5" y1="1" x2="0.5" gradientUnits="objectBoundingBox">
      <stop offset="0" stop-color="#a00"/>
      <stop offset="0.04" stop-color="#ba1515"/>
      <stop offset="0.11" stop-color="#cf3030"/>
      <stop offset="0.19" stop-color="#df4646"/>
      <stop offset="0.28" stop-color="#ec5757"/>
      <stop offset="0.4" stop-color="#f56262"/>
      <stop offset="0.56" stop-color="#fb6969"/>
      <stop offset="1" stop-color="#fc6b6b"/>
    </linearGradient>
  </defs>
  <g id="Group_5" data-name="Group 5" transform="translate(-287 -559)">
    <g id="Group_4" data-name="Group 4" transform="translate(0 418)">
      <path id="Subtraction_2" data-name="Subtraction 2" d="M151.5,303a152.616,152.616,0,0,1-30.533-3.078,150.669,150.669,0,0,1-54.173-22.8A151.942,151.942,0,0,1,11.906,210.47a150.738,150.738,0,0,1-8.828-28.438,152.976,152.976,0,0,1,0-61.065,150.67,150.67,0,0,1,22.8-54.173A151.941,151.941,0,0,1,92.529,11.906a150.737,150.737,0,0,1,28.438-8.828,152.976,152.976,0,0,1,61.065,0,150.672,150.672,0,0,1,54.173,22.8,151.941,151.941,0,0,1,54.89,66.655,150.734,150.734,0,0,1,8.828,28.438,152.974,152.974,0,0,1,0,61.065,150.671,150.671,0,0,1-22.8,54.173,151.943,151.943,0,0,1-66.656,54.89,150.735,150.735,0,0,1-28.438,8.828A152.616,152.616,0,0,1,151.5,303Zm0-252a101.243,101.243,0,0,0-20.254,2.042A99.95,99.95,0,0,0,95.31,68.164,100.794,100.794,0,0,0,58.9,112.381a99.993,99.993,0,0,0-5.856,18.865,101.481,101.481,0,0,0,0,40.508A99.951,99.951,0,0,0,68.164,207.69,100.794,100.794,0,0,0,112.381,244.1a99.993,99.993,0,0,0,18.865,5.856,101.479,101.479,0,0,0,40.508,0,99.949,99.949,0,0,0,35.936-15.122A100.794,100.794,0,0,0,244.1,190.619a100,100,0,0,0,5.856-18.865,101.479,101.479,0,0,0,0-40.508A99.948,99.948,0,0,0,234.836,95.31,100.795,100.795,0,0,0,190.619,58.9a100,100,0,0,0-18.865-5.856A101.245,101.245,0,0,0,151.5,51Z" transform="translate(287 141)" fill="#fff"/>
      <path id="Path_30" data-name="Path 30" d="M507.665,585.833a70,70,0,0,1-9.869-.7c-42.26-6.027-71.065-38.153-71.677-79.919a119.805,119.805,0,0,1,11.693-53.32c6.6-13.974,14.1-28.134,22.931-43.3,10.406-17.852,20.912-35.206,32.038-53.57,4.521-7.469,9.207-15.173,13.832-22.9,6.98,11.839,14.156,23.544,21.1,34.863,16.761,27.336,32.593,53.154,45.993,80.987,6.517,13.539,10.637,26.045,12.591,38.228a94.071,94.071,0,0,1-1.927,40.185,80.812,80.812,0,0,1-29.009,42.729c-14.063,10.791-31.005,16.711-47.7,16.711Z" transform="translate(-68.183 -166.21)" fill="url(#linear-gradient)"/>
    </g>
    <g id="Group_3" data-name="Group 3" transform="translate(0 389)">
      <text id="INSULINE" transform="translate(642 326)" fill="#212121" font-size="87" font-family="HelveticaNeue, Helvetica Neue"><tspan x="0" y="0">INSULINE</tspan></text>
      <text id="Diabetes_Manager" data-name="Diabetes Manager" transform="translate(650 391)" fill="#212121" font-size="48" font-family="HelveticaNeue-Light, Helvetica Neue" font-weight="300"><tspan x="0" y="0">Diabetes Manager</tspan></text>
    </g>
  </g>
</svg>
