<svg id="Layer_1" data-name="Layer 1" xmlns="http://www.w3.org/2000/svg" xmlns:xlink="http://www.w3.org/1999/xlink" viewBox="0 0 2888.8 776.69"><defs><style>.cls-1{fill:url(#linear-gradient);}.cls-2{fill:#1c88d1;}.cls-3{fill:#fff;}.cls-4{fill:url(#linear-gradient-2);}.cls-5{fill:#ad2d2d;}.cls-6{fill:none;stroke:#000;stroke-miterlimit:10;stroke-width:7px;}</style><linearGradient id="linear-gradient" x1="635.62" y1="273.19" x2="635.62" y2="1048.88" gradientUnits="userSpaceOnUse"><stop offset="0.08" stop-color="#54defd"/><stop offset="0.9" stop-color="#4992e5"/></linearGradient><linearGradient id="linear-gradient-2" x1="635.63" y1="990.42" x2="635.63" y2="332.13" gradientUnits="userSpaceOnUse"><stop offset="0" stop-color="#a00"/><stop offset="0.04" stop-color="#ba1515"/><stop offset="0.11" stop-color="#cf3030"/><stop offset="0.19" stop-color="#df4646"/><stop offset="0.28" stop-color="#ec5757"/><stop offset="0.4" stop-color="#f56262"/><stop offset="0.56" stop-color="#fb6969"/><stop offset="1" stop-color="#fc6b6b"/></linearGradient></defs><title>Insuline Logo</title><path class="cls-1" d="M635.62,1048.88a386.63,386.63,0,1,1,151-30.48A385.48,385.48,0,0,1,635.62,1048.88Zm0-648.54c-143.75,0-260.7,117-260.7,260.69s117,260.7,260.7,260.7,260.69-117,260.69-260.7S779.36,400.34,635.62,400.34Z" transform="translate(-247.27 -272.69)"/><path class="cls-2" d="M635.62,273.69a386.13,386.13,0,1,1-150.78,30.44,384.9,384.9,0,0,1,150.78-30.44m0,648.54c144,0,261.19-117.17,261.19-261.2S779.64,399.84,635.62,399.84,374.42,517,374.42,661s117.17,261.2,261.2,261.2m0-649.54c-214.48,0-388.35,173.87-388.35,388.34s173.87,388.35,388.35,388.35S1024,875.51,1024,661,850.09,272.69,635.62,272.69Zm0,648.54c-143.71,0-260.2-116.49-260.2-260.2s116.49-260.19,260.2-260.19S895.81,517.33,895.81,661s-116.49,260.2-260.19,260.2Z" transform="translate(-247.27 -272.69)"/><circle class="cls-3" cx="388.34" cy="388.34" r="260.2"/><path class="cls-4" d="M637.73,990.42a181.57,181.57,0,0,1-25.59-1.81c-109.67-15.64-184.41-99-186-207.37-.7-47.69,9.51-94.24,30.34-138.35,17.12-36.26,36.58-73,59.5-112.34,27-46.32,54.26-91.35,83.13-139C610.84,372.17,623,352.18,635,332.13c18.11,30.72,36.73,61.09,54.74,90.46,43.49,70.93,84.57,137.92,119.34,210.14,16.91,35.13,27.6,67.58,32.67,99.19,5.8,36.14,4.17,70.25-5,104.27-11.61,43.19-38.34,82.57-75.27,110.87-36.49,28-80.45,43.36-123.77,43.36Z" transform="translate(-247.27 -272.69)"/><path class="cls-5" d="M635,333.11c18,30.48,36.44,60.6,54.31,89.74,43.49,70.92,84.56,137.9,119.31,210.09,16.9,35.09,27.57,67.49,32.64,99.06,5.79,36.07,4.16,70.11-5,104.06-11.58,43.09-38.25,82.37-75.1,110.6-36.4,27.89-80.25,43.26-123.47,43.26a180.69,180.69,0,0,1-25.52-1.81,231.78,231.78,0,0,1-75.09-23.82,205.83,205.83,0,0,1-58.26-45.2,201.51,201.51,0,0,1-38-62.4,218.7,218.7,0,0,1-14.22-75.45c-.7-47.62,9.5-94.1,30.29-138.14,17.12-36.25,36.57-73,59.48-112.3,27-46.31,54.26-91.35,83.13-139,11.57-19.11,23.52-38.86,35.44-58.66m0-2C594,399.4,554,464.39,515.57,530.3c-21.33,36.6-41.44,74.08-59.52,112.37-20.56,43.55-31.11,89.6-30.39,138.58,1.56,107.92,76.17,192.13,186.41,207.85a181.49,181.49,0,0,0,25.66,1.82c89.08,0,175.29-64.37,199.53-154.6,19.2-71.41,3.34-139.26-27.73-203.81C759.81,529.23,695.68,434.19,635,331.15Z" transform="translate(-247.27 -272.69)"/><path d="M1087.14,629.82V327.72h50.92v302.1Z" transform="translate(-247.27 -272.69)"/><path d="M1429.37,629.82l-161-216.65V629.82h-50.92V327.72h50.06L1429.37,544.8V327.72h50.07v302.1Z" transform="translate(-247.27 -272.69)"/><path d="M1764.27,356.63l-21.15,44.89c-32.8-19.86-65.6-28.06-88.47-28.06-29.78,0-49.2,11.22-49.2,31.51,0,66,163.14,30.64,162.7,139.4,0,54-47.47,87.18-113.93,87.18-47.48,0-92.36-19.42-123.43-47.91l22-44c31.07,28.49,69.91,44,102.28,44,35.39,0,56.54-13.38,56.54-36.68,0-67.33-163.14-29.78-163.14-137.24,0-51.79,44.45-84.16,110-84.16C1697.81,325.56,1736.22,338.07,1764.27,356.63Z" transform="translate(-247.27 -272.69)"/><path d="M2084.49,504.66c0,79-49.63,127.32-131.2,127.32s-131.63-48.34-131.63-127.32V327.72h50.93V504.66c0,50.93,31.5,81.57,81.14,81.57,49.2,0,79.84-30.21,79.84-81.57V327.72h50.92Z" transform="translate(-247.27 -272.69)"/><path d="M2339.12,583.64v46.18h-181.7V327.72h50.93V583.64Z" transform="translate(-247.27 -272.69)"/><path d="M2387.88,629.82V327.72h50.93v302.1Z" transform="translate(-247.27 -272.69)"/><path d="M2730.12,629.82l-161-216.65V629.82h-50.93V327.72h50.07L2730.12,544.8V327.72h50.06v302.1Z" transform="translate(-247.27 -272.69)"/><path d="M2910.94,373.46V455h147.6v45.75h-147.6v83.29h170v45.75H2860V327.72H3075.8v45.74Z" transform="translate(-247.27 -272.69)"/><path d="M1092.56,747.16a157.48,157.48,0,0,1,42.53,5.39,91.17,91.17,0,0,1,33.08,16.54,75,75,0,0,1,21.48,28.18q7.63,17,7.64,40.22a96.37,96.37,0,0,1-2.75,23,86.19,86.19,0,0,1-8.27,21.17,83.17,83.17,0,0,1-32.76,32.63,100.22,100.22,0,0,1-24.37,9.4,122,122,0,0,1-29.56,3.38h-67.53v-8.52q7.26-.24,10.9-2.63a12.81,12.81,0,0,0,5.14-6.51,29.82,29.82,0,0,0,1.56-9.84q.06-5.7.07-12.46V776.23q0-5.26.18-10t.69-8.58l-18.54,1.12v-11.4Zm-20.42,149.58q0,7-.19,11.91a71,71,0,0,1-.69,8.14c3.43.17,6.68.29,9.78.38s5.86.12,8.33.12h9.45a72,72,0,0,0,30.07-6.14,67.83,67.83,0,0,0,23.11-17,77.49,77.49,0,0,0,14.85-25.62,95,95,0,0,0,5.26-32.07,102.83,102.83,0,0,0-4.95-32.89,65.69,65.69,0,0,0-15.09-25.18,67.12,67.12,0,0,0-25.62-16.1q-15.48-5.64-36.65-5.64-7.26,0-10.89,2.26a12.15,12.15,0,0,0-5.14,6.33,29,29,0,0,0-1.57,9.71q-.06,5.63-.06,12.52Z" transform="translate(-247.27 -272.69)"/><path d="M1235.5,829.6q0-4,.19-7.77c.13-2.51.4-5.47.81-8.9l-18.16,1V803.16q8.39,0,13.9-.56a53.53,53.53,0,0,0,9-1.57,19.77,19.77,0,0,0,8.9-4.76h7.39V899.88q0,5.13-.12,9.08a62,62,0,0,1-.88,8.33l16.16-.75v10.52h-52.37v-7.64c3.93,0,6.91-.77,9-2.32a12.9,12.9,0,0,0,4.45-6.45,34.88,34.88,0,0,0,1.56-9.9q.2-5.76.19-12.65Zm24.43-73.92a14.76,14.76,0,0,1-1.19,5.89,17.11,17.11,0,0,1-3.07,4.82,13.11,13.11,0,0,1-4.38,3.2,12.83,12.83,0,0,1-10.53,0,13.75,13.75,0,0,1-4.44-3.2,14.5,14.5,0,0,1-3-4.82,16.45,16.45,0,0,1,3.13-16.91,14.28,14.28,0,0,1,4.45-3.32,12.43,12.43,0,0,1,5.39-1.19,12,12,0,0,1,5.32,1.19,13.67,13.67,0,0,1,4.32,3.32,15.76,15.76,0,0,1,2.95,5A17.25,17.25,0,0,1,1259.93,755.68Z" transform="translate(-247.27 -272.69)"/><path d="M1297.64,825.46a21.23,21.23,0,0,1,3.76-12,33.68,33.68,0,0,1,10.52-9.84A57.26,57.26,0,0,1,1328,797a82.59,82.59,0,0,1,20.36-2.38q21.54,0,31.75,11.4t10.09,36.21l-.25,57.63q0,4-.19,8.08c-.12,2.71-.4,5.82-.81,9.33l18.16-1v10.77h-36.7c-.51-2.92-.88-5.47-1.13-7.64s-.46-4.47-.63-6.89a70.71,70.71,0,0,1-18.85,13.65,48.45,48.45,0,0,1-21.61,5,55.24,55.24,0,0,1-16.85-2.32,34,34,0,0,1-12-6.45,26.72,26.72,0,0,1-7.14-9.71,31.56,31.56,0,0,1,1.07-26.37,39.91,39.91,0,0,1,9.27-11.59,59.24,59.24,0,0,1,13.59-8.77,99.84,99.84,0,0,1,16.47-6.08,121.8,121.8,0,0,1,17.79-3.44,136.05,136.05,0,0,1,17.73-.94v-16a108.56,108.56,0,0,0-.75-12.9,34.43,34.43,0,0,0-3.32-11.4,18.84,18.84,0,0,0-8-8.14,25.57,25.57,0,0,0-12.59-3,43.55,43.55,0,0,0-7.89.69,32,32,0,0,0-7.39,2.32,24.94,24.94,0,0,0-6.58,4.26,21.6,21.6,0,0,0-4.82,6.26,11.62,11.62,0,0,1,2.56,4.7,19,19,0,0,1,.69,5,11.57,11.57,0,0,1-.62,3.44,11.81,11.81,0,0,1-1.94,3.63,10,10,0,0,1-3.39,2.76,12.22,12.22,0,0,1-5.57,1.06,9.65,9.65,0,0,1-8-3.69A13.94,13.94,0,0,1,1297.64,825.46Zm70.41,38.84q-5.9.26-12.22,1.06a88.71,88.71,0,0,0-12.4,2.51,67.47,67.47,0,0,0-11.46,4.32,39.79,39.79,0,0,0-9.4,6.26,26.65,26.65,0,0,0-6.26,8.4,22.47,22.47,0,0,0-2,10.77,20.43,20.43,0,0,0,1.82,8.33,17.6,17.6,0,0,0,4.38,5.89,18.42,18.42,0,0,0,6.2,3.51,23.37,23.37,0,0,0,7.52,1.19,44.37,44.37,0,0,0,9.65-1,40.08,40.08,0,0,0,8.58-2.95,50.81,50.81,0,0,0,7.89-4.7,76.6,76.6,0,0,0,7.71-6.39Z" transform="translate(-247.27 -272.69)"/><path d="M1432.94,766.71q0-4,.06-7.77a85.45,85.45,0,0,1,.69-8.89l-18.16,1V740.27q8.38,0,14-.56a54,54,0,0,0,9.09-1.57,23.45,23.45,0,0,0,5.51-2.19,21.5,21.5,0,0,0,3.51-2.57H1455v76.55a51.62,51.62,0,0,1,17-11.21,60.28,60.28,0,0,1,44.85.5,54,54,0,0,1,18.42,13,60.43,60.43,0,0,1,12.27,20.54,78,78,0,0,1,4.45,27.12,75.19,75.19,0,0,1-5.57,29.57,70.39,70.39,0,0,1-14.79,22.42,65.53,65.53,0,0,1-46.29,19.3,68,68,0,0,1-9.27-.69,49.35,49.35,0,0,1-9.89-2.51,50.62,50.62,0,0,1-9.77-4.82,39.43,39.43,0,0,1-8.77-7.64l-6.14,11.52h-9Zm53.12,40.59a38.62,38.62,0,0,0-16.79,3.94A45.47,45.47,0,0,0,1455,821.83v64.89q0,10.28,2.5,16.85a26.16,26.16,0,0,0,6.77,10.4,23.18,23.18,0,0,0,9.71,5.26,44.15,44.15,0,0,0,11.33,1.44,35.22,35.22,0,0,0,16.73-3.94,36.57,36.57,0,0,0,12.65-11.15,54.2,54.2,0,0,0,8-17.23,81.7,81.7,0,0,0,2.82-22.17,108.5,108.5,0,0,0-2.44-23.74,59.33,59.33,0,0,0-7.33-18.61,36.46,36.46,0,0,0-12.28-12.15A33.52,33.52,0,0,0,1486.06,807.3Z" transform="translate(-247.27 -272.69)"/><path d="M1690.38,851.39l-90.32,1.51a133.27,133.27,0,0,0,2.25,26.86,63.51,63.51,0,0,0,7.52,20.58,36.46,36.46,0,0,0,13.22,13.18q8.07,4.65,19.35,4.65a48.54,48.54,0,0,0,12.28-1.64,65.51,65.51,0,0,0,12.09-4.47,55.31,55.31,0,0,0,10.71-6.81,43.88,43.88,0,0,0,8.14-8.51l6.27,5.14a57.83,57.83,0,0,1-12.22,13.59,72,72,0,0,1-14.41,9.09,67.48,67.48,0,0,1-15,5.07,69.33,69.33,0,0,1-14,1.57,63.92,63.92,0,0,1-24.74-4.76,57.24,57.24,0,0,1-19.86-13.66,64.63,64.63,0,0,1-13.21-21.42,77.86,77.86,0,0,1-4.83-28.19,73,73,0,0,1,4.64-25.87,68.74,68.74,0,0,1,13.15-21.86,63.66,63.66,0,0,1,20.42-15.16,61,61,0,0,1,26.44-5.64,57.26,57.26,0,0,1,20.1,3.51,46.54,46.54,0,0,1,16.6,10.52,49.44,49.44,0,0,1,11.28,17.73Q1690.38,837.11,1690.38,851.39Zm-51.86-46.6q-15,0-24.81,8.8t-12.9,28.53h65.39a61.14,61.14,0,0,0-1.5-13.42,38.17,38.17,0,0,0-4.82-12,27.06,27.06,0,0,0-8.58-8.62A23.6,23.6,0,0,0,1638.52,804.79Z" transform="translate(-247.27 -272.69)"/><path d="M1705.42,798.78a22.85,22.85,0,0,0,12.27-3.7,39.92,39.92,0,0,0,9.71-8.89,57.16,57.16,0,0,0,7.08-11.59,88.86,88.86,0,0,0,4.51-11.78h8.77q0,10.27-.06,19.17t-.07,16.79h43.22v10l-43.22.5q-.12,16.66-.12,28.44t-.06,19.67q-.08,7.89-.07,12.46t-.06,7c0,1.58-.06,2.61-.06,3.06v.82a112,112,0,0,0,.94,15.47,37.18,37.18,0,0,0,3.19,11.28,16.55,16.55,0,0,0,5.95,6.89,17.36,17.36,0,0,0,9.34,2.31,24.81,24.81,0,0,0,13.15-4,38.42,38.42,0,0,0,11.53-11.4l6.89,5.64A64.81,64.81,0,0,1,1787,920.23a49.86,49.86,0,0,1-10.58,7.27,32,32,0,0,1-9.34,3.07,53.26,53.26,0,0,1-7.57.63,52,52,0,0,1-8-.63,30.21,30.21,0,0,1-8-2.44,26.93,26.93,0,0,1-7.39-5.14,30.83,30.83,0,0,1-6.07-8.58,50.75,50.75,0,0,1-4.14-12.78,86.82,86.82,0,0,1-1.38-17.79l.5-74.16-19.66.12Z" transform="translate(-247.27 -272.69)"/><path d="M1926.91,851.39l-90.33,1.51a133.24,133.24,0,0,0,2.26,26.86,63.51,63.51,0,0,0,7.51,20.58,36.53,36.53,0,0,0,13.22,13.18q8.09,4.65,19.36,4.65a48.53,48.53,0,0,0,12.27-1.64,65,65,0,0,0,12.09-4.47,54.71,54.71,0,0,0,10.71-6.81,44.25,44.25,0,0,0,8.15-8.51l6.26,5.14a58,58,0,0,1-12.21,13.59,72.26,72.26,0,0,1-14.41,9.09,67.65,67.65,0,0,1-15,5.07,69.33,69.33,0,0,1-14,1.57,64,64,0,0,1-24.75-4.76,57.11,57.11,0,0,1-19.85-13.66A64.65,64.65,0,0,1,1815,891.36a78.07,78.07,0,0,1-4.82-28.19,73,73,0,0,1,4.63-25.87,68.76,68.76,0,0,1,13.16-21.86,63.56,63.56,0,0,1,20.42-15.16,60.91,60.91,0,0,1,26.43-5.64,57.35,57.35,0,0,1,20.11,3.51,46.63,46.63,0,0,1,16.6,10.52,49.29,49.29,0,0,1,11.27,17.73Q1926.91,837.11,1926.91,851.39ZM1875,804.79q-15,0-24.8,8.8t-12.91,28.53h65.4a60.56,60.56,0,0,0-1.51-13.42,38.17,38.17,0,0,0-4.82-12,26.86,26.86,0,0,0-8.58-8.62A23.6,23.6,0,0,0,1875,804.79Z" transform="translate(-247.27 -272.69)"/><path d="M1997.81,921.05a42.15,42.15,0,0,0,9.84-1.19,31.17,31.17,0,0,0,9-3.68,21.55,21.55,0,0,0,6.64-6.31,15.86,15.86,0,0,0,2.56-9.06,17,17,0,0,0-3.19-10.43,31.05,31.05,0,0,0-8.39-7.63,69.84,69.84,0,0,0-11.9-5.93q-6.71-2.62-13.66-5.38t-13.59-6.08a56.07,56.07,0,0,1-11.84-7.83,35.22,35.22,0,0,1-8.4-10.77,32.47,32.47,0,0,1-3.19-14.91,40.13,40.13,0,0,1,2-11.84,32.74,32.74,0,0,1,7-12.09,39.38,39.38,0,0,1,13.47-9.46q8.46-3.81,21.36-3.82a58.32,58.32,0,0,1,7.45.51,44.85,44.85,0,0,1,8.08,1.81,53.78,53.78,0,0,1,8.27,3.45,51.28,51.28,0,0,1,8.14,5.26l-.62-9.77h10.77v45h-8a57.41,57.41,0,0,0-2.57-13.15,38.37,38.37,0,0,0-6-11.72,30.65,30.65,0,0,0-10-8.45,29.58,29.58,0,0,0-14.28-3.26,33.06,33.06,0,0,0-10.65,1.57,23.69,23.69,0,0,0-7.83,4.26,17.83,17.83,0,0,0-4.82,6.2,17.28,17.28,0,0,0-1.63,7.39,18.11,18.11,0,0,0,3.19,10.77,31.78,31.78,0,0,0,8.46,8,70.65,70.65,0,0,0,12,6.33l13.78,5.76q7,2.94,13.78,6.26a57.13,57.13,0,0,1,12,7.83,36,36,0,0,1,8.46,10.53,30,30,0,0,1,3.2,14.28,34.58,34.58,0,0,1-3.89,16.78,35.17,35.17,0,0,1-10.21,11.78,44.42,44.42,0,0,1-14.28,6.89,58.88,58.88,0,0,1-16.1,2.26,69.33,69.33,0,0,1-39.21-11.28l.88,8.9h-10.78l-1.5-44.1h7.89a39.46,39.46,0,0,0,3.7,14.67,37.38,37.38,0,0,0,8.39,11.48,38.29,38.29,0,0,0,26.12,10.18Z" transform="translate(-247.27 -272.69)"/><path d="M2105.79,747.34H2145q8.89,20.16,17,38.83t15.84,36.77L2193.3,859q7.69,18,15.84,36.64h.5c1-2.33,2.07-4.92,3.2-7.76s2.27-5.77,3.44-8.77,2.32-5.93,3.45-8.77,2.15-5.43,3.07-7.77q11.14-28.07,23.36-56.5t24.12-58.75h38v8.52a20.56,20.56,0,0,0-8.4,1.31,12.82,12.82,0,0,0-5.76,4.7,21.67,21.67,0,0,0-3.19,8.65,57.25,57.25,0,0,0-.44,13.29l6.76,116.85c.17,3,.29,5.87.38,8.59s.12,5.21.12,7.46l18.67-.88V927h-57.5v-8.39q6-.12,9.52-2.19a13.21,13.21,0,0,0,5.32-6,26.78,26.78,0,0,0,2.2-9.47,109.7,109.7,0,0,0,0-12.85l-6.64-109.46c-.51,1.25-1.05,2.56-1.63,3.94s-1.17,2.82-1.76,4.32l-57.75,142.57h-7.64q-8.4-18.79-16.91-37.58t-16.85-37.84q-8.34-19-16.42-38.4t-15.59-39.27l-.25,11.29q-.26,6.13-.44,14.1t-.5,17q-.32,9-.57,18.81t-.5,19.69q-.25,9.9-.5,19.5T2131.6,895c-.09,3.85-.17,7.65-.26,11.41a95.27,95.27,0,0,1-.75,10.41l19.3-1V927h-49v-8.39q6-.12,9.4-2.07a13.73,13.73,0,0,0,5.2-5.14,19.57,19.57,0,0,0,2.32-7.39q.49-4.2.75-9l5.63-137.29-18.41.63Z" transform="translate(-247.27 -272.69)"/><path d="M2341.68,825.38a21.33,21.33,0,0,1,3.76-12,33.83,33.83,0,0,1,10.53-9.84,57.19,57.19,0,0,1,16.09-6.57,82.17,82.17,0,0,1,20.36-2.38q21.55,0,31.76,11.4t10.08,36.2L2434,899.8c0,2.67-.06,5.37-.18,8.08s-.4,5.82-.82,9.33l18.17-1V927h-36.71q-.75-4.38-1.13-7.64c-.25-2.17-.46-4.46-.62-6.89a70.8,70.8,0,0,1-18.86,13.66,48.44,48.44,0,0,1-21.61,5,55.29,55.29,0,0,1-16.85-2.32,33.9,33.9,0,0,1-12-6.45,26.41,26.41,0,0,1-7.14-9.71,31.6,31.6,0,0,1,1.06-26.37,40.38,40.38,0,0,1,9.27-11.59,59.86,59.86,0,0,1,13.6-8.77,98.27,98.27,0,0,1,16.47-6.07,120,120,0,0,1,17.79-3.45,135.87,135.87,0,0,1,17.73-.94v-16a106.46,106.46,0,0,0-.76-12.9,34.34,34.34,0,0,0-3.32-11.4,18.82,18.82,0,0,0-8-8.14,25.6,25.6,0,0,0-12.59-3,43.74,43.74,0,0,0-7.9.69,32.11,32.11,0,0,0-7.39,2.32,25.05,25.05,0,0,0-6.57,4.26,21.63,21.63,0,0,0-4.83,6.26,11.53,11.53,0,0,1,2.57,4.7,19,19,0,0,1,.69,4.95,11.3,11.3,0,0,1-.63,3.44,11.76,11.76,0,0,1-1.94,3.64,10.1,10.1,0,0,1-3.38,2.75,12.28,12.28,0,0,1-5.58,1.07,9.61,9.61,0,0,1-7.95-3.7A13.94,13.94,0,0,1,2341.68,825.38Zm70.41,38.84q-5.9.25-12.21,1.07a87.41,87.41,0,0,0-12.41,2.5,67.47,67.47,0,0,0-11.46,4.32,40.27,40.27,0,0,0-9.39,6.27,26.49,26.49,0,0,0-6.27,8.39,22.61,22.61,0,0,0-2,10.77,20.59,20.59,0,0,0,1.81,8.33,17.49,17.49,0,0,0,4.39,5.89,18.32,18.32,0,0,0,6.2,3.51,23.33,23.33,0,0,0,7.52,1.19,44.21,44.21,0,0,0,9.64-1,39.71,39.71,0,0,0,8.58-3,51.15,51.15,0,0,0,7.9-4.69,80.54,80.54,0,0,0,7.7-6.39Z" transform="translate(-247.27 -272.69)"/><path d="M2484.25,829.52c0-2.67,0-5.39.13-8.14a60.94,60.94,0,0,1,.87-8.52l-18.16,1V803.08a132,132,0,0,0,13.65-.56,44.66,44.66,0,0,0,8.46-1.57,18.77,18.77,0,0,0,5-2.19,27.63,27.63,0,0,0,3.25-2.57h7.4q.24,2.89.56,6.58c.21,2.47.4,5.45.56,9A73,73,0,0,1,2515,805a74.81,74.81,0,0,1,10.33-5.45,65.66,65.66,0,0,1,11.09-3.63,49.58,49.58,0,0,1,11.21-1.31q22.31,0,32.57,14t10.28,43.41V899.8c0,3.42,0,6.45-.13,9.08a60.42,60.42,0,0,1-.88,8.33l16.16-.75V927h-52.36v-7.64q5.88,0,9-2.32a13,13,0,0,0,4.44-6.45,35.14,35.14,0,0,0,1.57-9.89c.12-3.85.19-8.06.19-12.66V852.19q-.26-22.17-7.27-33.38t-22.3-11.22a32.34,32.34,0,0,0-9.27,1.38,51.27,51.27,0,0,0-8.89,3.57,47.85,47.85,0,0,0-8,5.2,40.2,40.2,0,0,0-6.52,6.52c.09,1.5.13,3.11.13,4.82v5.2l-.25,65.52q0,5.13-.13,9.08a60.34,60.34,0,0,1-.87,8.33l16.16-.75V927h-52.37v-7.64c3.93,0,6.91-.77,9-2.32a12.55,12.55,0,0,0,4.38-6.45,36.81,36.81,0,0,0,1.51-9.89c.12-3.85.23-8.06.31-12.66Z" transform="translate(-247.27 -272.69)"/><path d="M2629.82,825.38a21.33,21.33,0,0,1,3.76-12,33.79,33.79,0,0,1,10.52-9.84,57.26,57.26,0,0,1,16.1-6.57,82.11,82.11,0,0,1,20.36-2.38q21.54,0,31.76,11.4t10.08,36.2l-.25,57.63c0,2.67-.06,5.37-.19,8.08s-.39,5.82-.81,9.33l18.16-1V927h-36.7q-.75-4.38-1.13-7.64c-.25-2.17-.46-4.46-.63-6.89A70.59,70.59,0,0,1,2682,926.11a48.44,48.44,0,0,1-21.61,5,55.29,55.29,0,0,1-16.85-2.32,33.9,33.9,0,0,1-12-6.45,26.41,26.41,0,0,1-7.14-9.71,31.6,31.6,0,0,1,1.06-26.37,40.38,40.38,0,0,1,9.27-11.59,59.57,59.57,0,0,1,13.59-8.77,98.71,98.71,0,0,1,16.48-6.07,120,120,0,0,1,17.79-3.45,135.81,135.81,0,0,1,17.72-.94v-16a108.56,108.56,0,0,0-.75-12.9,34.57,34.57,0,0,0-3.32-11.4,18.79,18.79,0,0,0-8-8.14,25.57,25.57,0,0,0-12.59-3,43.71,43.71,0,0,0-7.89.69,32.11,32.11,0,0,0-7.39,2.32,25.11,25.11,0,0,0-6.58,4.26,21.6,21.6,0,0,0-4.82,6.26,11.65,11.65,0,0,1,2.57,4.7,19,19,0,0,1,.69,4.95,11.3,11.3,0,0,1-.63,3.44,11.76,11.76,0,0,1-1.94,3.64,10.1,10.1,0,0,1-3.38,2.75,12.28,12.28,0,0,1-5.58,1.07,9.61,9.61,0,0,1-7.95-3.7A13.89,13.89,0,0,1,2629.82,825.38Zm70.41,38.84q-5.89.25-12.22,1.07a87.55,87.55,0,0,0-12.4,2.5,67.47,67.47,0,0,0-11.46,4.32,40.55,40.55,0,0,0-9.4,6.27,26.61,26.61,0,0,0-6.26,8.39,22.73,22.73,0,0,0-2,10.77,20.59,20.59,0,0,0,1.82,8.33,17.49,17.49,0,0,0,4.39,5.89,18.32,18.32,0,0,0,6.2,3.51,23.27,23.27,0,0,0,7.51,1.19,44.31,44.31,0,0,0,9.65-1,39.71,39.71,0,0,0,8.58-3,51.06,51.06,0,0,0,7.89-4.69,79.4,79.4,0,0,0,7.71-6.39Z" transform="translate(-247.27 -272.69)"/><path d="M2870,793.56a15.23,15.23,0,0,0-5.76,2.07,17.16,17.16,0,0,0-4.39,4,22.26,22.26,0,0,0-3.07,5.2,31.67,31.67,0,0,0-1.81,5.7A43.61,43.61,0,0,1,2865,824.26a39.12,39.12,0,0,1,3.7,16.78,44.92,44.92,0,0,1-4.45,20,49.46,49.46,0,0,1-12,15.65A54.84,54.84,0,0,1,2835,886.89a58.75,58.75,0,0,1-20.6,3.64,50.69,50.69,0,0,1-8.46-.63,52.61,52.61,0,0,0-8.71-.62,28.49,28.49,0,0,0-8.7,1.25,19.85,19.85,0,0,0-6.64,3.44,11.75,11.75,0,0,0-3.57,4.26,9.34,9.34,0,0,0-.88,3.57,10.74,10.74,0,0,0,.5,3.13,8.34,8.34,0,0,0,4.07,4.89,27.41,27.41,0,0,0,8.33,2.94,93.05,93.05,0,0,0,12.22,1.57q7.07.51,16,.88A189.07,189.07,0,0,1,2845,918a67,67,0,0,1,19.85,6.64,32.32,32.32,0,0,1,12.47,11.52q4.32,7.08,4.32,17.48a31.15,31.15,0,0,1-5.58,18.35,47.69,47.69,0,0,1-14.53,13.4,72.33,72.33,0,0,1-20.17,8.27,92.32,92.32,0,0,1-22.61,2.82q-17.28,0-29.5-3t-19.86-8q-7.64-4.95-11.15-11.15A25.39,25.39,0,0,1,2757,951a35.21,35.21,0,0,1,5.7-8.77,40.08,40.08,0,0,1,7.64-6.71,56.77,56.77,0,0,1,8.08-4.57,31,31,0,0,1-13-7.2q-4.76-4.69-4.76-13a22,22,0,0,1,1.88-8.83,28,28,0,0,1,5.26-8,30.54,30.54,0,0,1,8.08-6.14,34.88,34.88,0,0,1,10.34-3.51,49.36,49.36,0,0,1-10.65-6.7,42.8,42.8,0,0,1-8.14-8.9,39.83,39.83,0,0,1-5.2-10.83,42.81,42.81,0,0,1-1.82-12.66,46.17,46.17,0,0,1,4.7-20.92,51.76,51.76,0,0,1,12.28-16,54.39,54.39,0,0,1,17.29-10.21,56.72,56.72,0,0,1,19.73-3.57,60.55,60.55,0,0,1,17,2.44,56.19,56.19,0,0,1,15.54,7.2,40.55,40.55,0,0,1,5.13-10,40,40,0,0,1,7.33-8,33.32,33.32,0,0,1,8.83-5.19,26.63,26.63,0,0,1,9.9-1.88q6.51,0,10.09,3.38c2.38,2.25,3.57,5.39,3.57,9.39a10.81,10.81,0,0,1-.63,3.39,11.26,11.26,0,0,1-1.94,3.51,11,11,0,0,1-3.45,2.75,9.88,9.88,0,0,1-5.13,1,10.48,10.48,0,0,1-7.14-2.69A11.49,11.49,0,0,1,2870,793.56Zm-53.87,141.82q-7.14-.25-13.78-.63a116.59,116.59,0,0,1-12.65-1.38,33,33,0,0,0-11,11.25,27.8,27.8,0,0,0-3.83,14.12,21.7,21.7,0,0,0,3.07,11.44,27,27,0,0,0,8.77,8.69,45.59,45.59,0,0,0,13.78,5.56,77.32,77.32,0,0,0,18,1.93,79,79,0,0,0,19.73-2.24,52.57,52.57,0,0,0,14.72-6,28.3,28.3,0,0,0,9.15-8.69,19.22,19.22,0,0,0,3.13-10.43q0-7.12-3.7-11.56a24.53,24.53,0,0,0-10.27-7,63.05,63.05,0,0,0-15.53-3.62Q2826.75,935.76,2816.11,935.38Zm-2.26-131.79a26.64,26.64,0,0,0-12.27,2.75,26.32,26.32,0,0,0-9.08,7.64,35.15,35.15,0,0,0-5.64,11.53,50.5,50.5,0,0,0-1.94,14.28,65.72,65.72,0,0,0,2,16.85,40.51,40.51,0,0,0,5.89,13.09,27.15,27.15,0,0,0,9.52,8.52,26.79,26.79,0,0,0,12.78,3,27.85,27.85,0,0,0,12.46-2.63,24.94,24.94,0,0,0,8.9-7.33,33,33,0,0,0,5.38-11.15,51.42,51.42,0,0,0,1.82-14,68.68,68.68,0,0,0-1.88-16.16,43.67,43.67,0,0,0-5.64-13.59,30,30,0,0,0-9.33-9.34A23.91,23.91,0,0,0,2813.85,803.59Z" transform="translate(-247.27 -272.69)"/><path d="M3015.18,851.32l-90.33,1.5a133.94,133.94,0,0,0,2.25,26.86,63.81,63.81,0,0,0,7.52,20.59,36.69,36.69,0,0,0,13.22,13.18q8.09,4.63,19.35,4.64a48.54,48.54,0,0,0,12.28-1.64,65,65,0,0,0,12.09-4.47,55.31,55.31,0,0,0,10.71-6.81,44.12,44.12,0,0,0,8.14-8.5l6.27,5.13a58.08,58.08,0,0,1-12.22,13.6,72.59,72.59,0,0,1-14.4,9.08,67.14,67.14,0,0,1-15,5.07,69.35,69.35,0,0,1-14,1.57,64,64,0,0,1-24.74-4.76,57.11,57.11,0,0,1-19.85-13.66,64.49,64.49,0,0,1-13.22-21.42,77.86,77.86,0,0,1-4.82-28.19,73,73,0,0,1,4.63-25.87,68.76,68.76,0,0,1,13.16-21.86,63.7,63.7,0,0,1,20.42-15.16,60.91,60.91,0,0,1,26.43-5.63,57.58,57.58,0,0,1,20.11,3.5,46.52,46.52,0,0,1,16.6,10.53A49.38,49.38,0,0,1,3011,826.32Q3015.18,837,3015.18,851.32Zm-51.87-46.61q-15,0-24.8,8.81t-12.91,28.53H2991a60.58,60.58,0,0,0-1.51-13.43,38.17,38.17,0,0,0-4.82-12,26.86,26.86,0,0,0-8.58-8.62A23.6,23.6,0,0,0,2963.31,804.71Z" transform="translate(-247.27 -272.69)"/><path d="M3111.64,808.6a25.37,25.37,0,0,0-9.9,1.81,39.18,39.18,0,0,0-9.83,5.7,56.48,56.48,0,0,0-9.09,9,72.33,72.33,0,0,0-7.64,11.65l.25,63q0,5.13-.12,9.08a62,62,0,0,1-.88,8.33l16.16-.75V927H3038v-7.64c3.92,0,6.91-.77,8.95-2.32a12.9,12.9,0,0,0,4.45-6.45,35.14,35.14,0,0,0,1.57-9.89c.12-3.85.18-8.06.18-12.66V829.39c0-2.67,0-5.36.13-8.08a60.8,60.8,0,0,1,.88-8.45l-18.17.75V803.08h7.89a60.86,60.86,0,0,0,9.15-.56,26.61,26.61,0,0,0,6.07-1.57,18.86,18.86,0,0,0,4.08-2.19,36.18,36.18,0,0,0,3.13-2.57h7.39q.38,4,.69,10t.56,15.35a58.79,58.79,0,0,1,7.39-9.58,59.68,59.68,0,0,1,10.15-8.65,58.15,58.15,0,0,1,12.15-6.26,37.84,37.84,0,0,1,13.41-2.44,24.79,24.79,0,0,1,6.82.94,15.53,15.53,0,0,1,5.77,2.94,15.16,15.16,0,0,1,3.94,5,16,16,0,0,1,1.51,7.27,12.68,12.68,0,0,1-.69,3.88,11.93,11.93,0,0,1-2.26,4,12.81,12.81,0,0,1-3.94,3.13,12.49,12.49,0,0,1-5.89,1.25,10.69,10.69,0,0,1-5.2-1.25,12.51,12.51,0,0,1-3.88-3.19,12.06,12.06,0,0,1-2.26-4.51A13.91,13.91,0,0,1,3111.64,808.6Z" transform="translate(-247.27 -272.69)"/><line class="cls-6" x1="800.8" y1="404.76" x2="2888.8" y2="404.76"/></svg>