<?xml version="1.0" encoding="utf-8"?>
<!-- Generator: Adobe Illustrator 22.1.0, SVG Export Plug-In . SVG Version: 6.00 Build 0)  -->
<svg version="1.1" id="Layer_1" xmlns="http://www.w3.org/2000/svg" xmlns:xlink="http://www.w3.org/1999/xlink" x="0px" y="0px"
	 viewBox="0 0 24 24" style="enable-background:new 0 0 24 24;" xml:space="preserve">
<style type="text/css">
	.st0{fill:#FFFFFF;}
</style>
<g>
	<g>
		<path class="st0" d="M2.9,11.7c0.2-0.4,0.5-0.7,0.8-1C5.8,8.6,8,6.5,10.1,4.3c0.9-0.9,2.4-1,3.4-0.3c0.2,0.1,0.3,0.2,0.4,0.4
			c0.6,0.6,1.2,1.2,1.8,1.8c0,0,0.1,0.1,0.1,0.1c0,0,0,0,0,0c0-0.4,0-0.7,0-1.1c0-0.7,0.7-1.2,1.4-1c0.4,0.1,0.7,0.5,0.7,1
			c0,1,0,2,0,3c0,0.1,0,0.2,0.1,0.3c0.9,0.9,1.7,1.7,2.6,2.6c0.5,0.5,0.4,1.2-0.1,1.6c-0.4,0.3-0.9,0.3-1.3,0
			c-0.1-0.1-0.1-0.1-0.2-0.2c-2.2-2.2-4.4-4.4-6.7-6.7c-0.4-0.4-0.7-0.4-1,0C9.2,8.1,7,10.4,4.8,12.6c-0.3,0.3-0.6,0.4-1,0.3
			c-0.4-0.1-0.6-0.3-0.7-0.6c0,0,0-0.1-0.1-0.1C2.9,12,2.9,11.8,2.9,11.7z"/>
	</g>
	<g>
		<path class="st0" d="M13.7,9.9L13.7,9.9L13.7,9.9 M12,11.6l1.2,1.2c-0.4,0-0.8,0-1.2,0c-0.4,0-0.8,0-1.2,0l0.9-0.9L12,11.6
			 M12,7.6c-0.1,0-0.3,0.1-0.4,0.2c-2,2-4,4-5.9,5.9c-0.1,0.1-0.2,0.3-0.2,0.5c0,0.7,0,1.5,0,2.2c0,0,0,0,0,0c0,0.7,0,1.5,0,2.2
			c0,1,0.8,1.8,1.7,1.8c0.5,0,0.9,0,1.4,0c0.3,0,0.6,0,0.8,0c0.2,0,0.5,0,0.7,0c0,0,0,0,0,0c0.1,0,0.2,0,0.2-0.2c0-1.4,0-2.8,0-4.3
			c0-0.1,0-0.2,0.2-0.2c0,0,0,0,0,0c0.5,0,1,0,1.5,0c0.5,0,1,0,1.5,0c0,0,0,0,0,0c0.2,0,0.2,0,0.2,0.2c0,1.4,0,2.9,0,4.3
			c0,0.1,0,0.2,0.1,0.2c0,0,0,0,0,0c0.2,0,0.3,0,0.5,0c0.4,0,0.8,0,1.2,0c0.4,0,0.8,0,1.2,0c1,0,1.8-0.8,1.8-1.9c0-1.4,0-2.9,0-4.3
			c0-0.2-0.1-0.3-0.2-0.5c-2-2-4-4-5.9-5.9C12.3,7.7,12.1,7.6,12,7.6L12,7.6z"/>
	</g>
</g>
</svg>
