<svg id="Layer_1" data-name="Layer 1" xmlns="http://www.w3.org/2000/svg" xmlns:xlink="http://www.w3.org/1999/xlink" viewBox="0 0 46 46"><defs><style>.cls-1{fill:url(#linear-gradient);}.cls-2{fill:#fffbfa;}</style><linearGradient id="linear-gradient" x1="23" x2="23" y2="46" gradientUnits="userSpaceOnUse"><stop offset="0" stop-color="#fff"/><stop offset="0" stop-color="#49c6e5"/><stop offset="1" stop-color="#8bd7d2"/></linearGradient></defs><title>Untitled-2</title><path class="cls-1" d="M23,0A23,23,0,1,0,46,23,23,23,0,0,0,23,0Zm0,38.41A15.41,15.41,0,1,1,38.41,23,15.41,15.41,0,0,1,23,38.41Z"/><path class="cls-2" d="M23,6h0a.56.56,0,0,1-.3-.08.58.58,0,0,1-.2-.79L23,4.31l.51.85a.57.57,0,0,1-.21.79A.51.51,0,0,1,23,6Z"/><path class="cls-2" d="M23.88,41.11a.58.58,0,0,1,0-1.15h0a.57.57,0,0,1,.62.53.58.58,0,0,1-.52.63h-.09Zm-1.76,0H22a.58.58,0,0,1-.52-.63.59.59,0,0,1,.64-.52h0a.58.58,0,0,1-.05,1.15Zm3.54-.28a.57.57,0,0,1-.14-1.13h0a.58.58,0,0,1,.71.41.59.59,0,0,1-.42.71h-.18Zm-5.32,0-.15,0h0a.59.59,0,0,1-.42-.71.58.58,0,0,1,.71-.41h0a.58.58,0,0,1,.42.7A.59.59,0,0,1,20.34,40.77Zm7-.55a.58.58,0,0,1-.24-1.1l0,0a.58.58,0,0,1,.48,1.06h0A.5.5,0,0,1,27.37,40.22Zm-8.74,0a.62.62,0,0,1-.23,0l0,0a.58.58,0,1,1,.45-1.06h0a.58.58,0,0,1,.31.76A.57.57,0,0,1,18.63,40.19ZM17,39.37a.55.55,0,0,1-.3-.09l0,0a.58.58,0,0,1-.19-.8.58.58,0,0,1,.8-.18l0,0A.58.58,0,0,1,17,39.37Zm11.93,0a.58.58,0,0,1-.31-1.07l0,0a.58.58,0,1,1,.63,1l0,0A.55.55,0,0,1,29,39.37ZM15.57,38.3a.57.57,0,0,1-.38-.15l0,0a.58.58,0,0,1-.05-.82.57.57,0,0,1,.81-.05l0,0a.58.58,0,0,1,.06.82A.6.6,0,0,1,15.57,38.3Zm14.82,0a.56.56,0,0,1-.43-.19.59.59,0,0,1,0-.82l0,0a.58.58,0,1,1,.77.86l0,0A.6.6,0,0,1,30.39,38.27ZM14.31,37a.56.56,0,0,1-.44-.21l0,0a.58.58,0,0,1,.08-.81.58.58,0,0,1,.82.08l0,0a.57.57,0,0,1-.45.94Zm17.33,0a.58.58,0,0,1-.37-.13.58.58,0,0,1-.08-.82l0,0a.59.59,0,0,1,.82-.09.59.59,0,0,1,.08.82l0,0A.6.6,0,0,1,31.64,37ZM13.29,35.51a.57.57,0,0,1-.5-.29l0,0a.58.58,0,0,1,1-.57v0a.57.57,0,0,1-.21.79A.59.59,0,0,1,13.29,35.51Zm19.37,0a.65.65,0,0,1-.29-.07.59.59,0,0,1-.21-.79l0,0a.58.58,0,1,1,1,.57l0,0A.57.57,0,0,1,32.66,35.48Zm-20.13-1.6A.59.59,0,0,1,12,33.5v0a.57.57,0,1,1,1.08-.39v0a.57.57,0,0,1-.34.74A.45.45,0,0,1,12.53,33.88Zm20.9,0-.2,0a.59.59,0,0,1-.34-.75l0,0a.58.58,0,0,1,1.08.4v0A.58.58,0,0,1,33.43,33.85ZM12,32.14a.57.57,0,0,1-.56-.47v0a.57.57,0,0,1,.46-.68.58.58,0,0,1,.68.46v0a.58.58,0,0,1-.45.68Zm21.88,0-.11,0a.57.57,0,0,1-.45-.68v0a.58.58,0,1,1,1.14.22v0A.59.59,0,0,1,33.92,32.12ZM11.83,30.35a.57.57,0,0,1-.57-.55v0a.58.58,0,0,1,.56-.6.57.57,0,0,1,.6.55v0a.58.58,0,0,1-.55.6Zm22.33,0h0a.57.57,0,0,1-.54-.61v0a.58.58,0,0,1,.61-.55.59.59,0,0,1,.55.61v0A.58.58,0,0,1,34.16,30.33Zm-22.3-1.79h0a.57.57,0,0,1-.53-.62v0a.58.58,0,0,1,.62-.54.57.57,0,0,1,.53.62v0A.58.58,0,0,1,11.86,28.54Zm22.28,0a.59.59,0,0,1-.58-.53v0a.57.57,0,0,1,.53-.62.57.57,0,0,1,.62.53v0a.59.59,0,0,1-.53.62Zm-22-1.77H12a.58.58,0,0,1-.46-.67v0a.58.58,0,0,1,.67-.46.58.58,0,0,1,.47.67v0A.58.58,0,0,1,12.09,26.75Zm21.8,0a.59.59,0,0,1-.57-.46v0a.57.57,0,0,1,.44-.68.59.59,0,0,1,.69.45v0a.58.58,0,0,1-.46.68ZM12.52,25a.47.47,0,0,1-.17,0,.58.58,0,0,1-.39-.72v0a.58.58,0,0,1,1.11.33v0A.59.59,0,0,1,12.52,25Zm20.91,0a.58.58,0,0,1-.55-.4v0a.58.58,0,0,1,.38-.73.57.57,0,0,1,.72.37v0a.58.58,0,0,1-.37.73A.55.55,0,0,1,33.43,25ZM13.13,23.3a.64.64,0,0,1-.23-.05.56.56,0,0,1-.3-.75v0a.59.59,0,0,1,.76-.31.58.58,0,0,1,.3.76v0A.57.57,0,0,1,13.13,23.3Zm19.68,0a.57.57,0,0,1-.53-.36l0,0a.58.58,0,0,1,1.07-.45l0,0a.57.57,0,0,1-.32.75A.54.54,0,0,1,32.81,23.29ZM13.89,21.66a.58.58,0,0,1-.52-.83l0,0a.58.58,0,0,1,1,.52l0,0A.59.59,0,0,1,13.89,21.66Zm18.17,0a.58.58,0,0,1-.52-.33l0,0a.57.57,0,0,1,.27-.77.56.56,0,0,1,.77.26l0,0a.58.58,0,0,1-.27.78A.57.57,0,0,1,32.06,21.65Zm-17.35-1.6a.66.66,0,0,1-.27-.06.58.58,0,0,1-.24-.78v0a.58.58,0,0,1,.78-.24.57.57,0,0,1,.25.78l0,0A.56.56,0,0,1,14.71,20.05Zm16.53,0a.58.58,0,0,1-.51-.31l0,0a.58.58,0,1,1,1-.53v0a.58.58,0,0,1-.24.78A.68.68,0,0,1,31.24,20ZM15.56,18.46a.57.57,0,0,1-.5-.86l0,0a.57.57,0,0,1,.78-.23.59.59,0,0,1,.23.79l0,0A.58.58,0,0,1,15.56,18.46Zm14.83,0a.56.56,0,0,1-.51-.3l0,0a.58.58,0,0,1,1-.56v0a.57.57,0,0,1-.22.78A.58.58,0,0,1,30.39,18.44ZM16.45,16.89a.6.6,0,0,1-.29-.08A.58.58,0,0,1,16,16l0,0a.59.59,0,0,1,.79-.22.58.58,0,0,1,.21.79l0,0A.58.58,0,0,1,16.45,16.89Zm13.05,0a.59.59,0,0,1-.5-.29l0,0a.58.58,0,0,1,.22-.79A.56.56,0,0,1,30,16l0,0a.57.57,0,0,1-.21.79A.6.6,0,0,1,29.5,16.87ZM17.36,15.33a.6.6,0,0,1-.29-.08.58.58,0,0,1-.2-.79l0,0a.58.58,0,0,1,1,.59l0,0A.56.56,0,0,1,17.36,15.33Zm11.23,0a.58.58,0,0,1-.5-.29v0a.56.56,0,0,1,.2-.79.58.58,0,0,1,.79.2l0,0a.58.58,0,0,1-.2.79A.67.67,0,0,1,28.59,15.31Zm-10.3-1.54a.54.54,0,0,1-.3-.08.58.58,0,0,1-.2-.79l0,0a.58.58,0,0,1,1,.59l0,0A.57.57,0,0,1,18.29,13.77Zm9.38,0a.58.58,0,0,1-.5-.28l0,0a.58.58,0,1,1,1-.59l0,0a.58.58,0,0,1-.49.88Zm-8.45-1.54a.52.52,0,0,1-.3-.08.57.57,0,0,1-.2-.79l0,0a.58.58,0,0,1,1,.59l0,0A.58.58,0,0,1,19.22,12.22Zm7.51,0a.6.6,0,0,1-.5-.27l0,0a.58.58,0,0,1,1-.6l0,0a.58.58,0,0,1-.19.8A.67.67,0,0,1,26.73,12.21Zm-6.58-1.53a.55.55,0,0,1-.3-.09.58.58,0,0,1-.2-.79l0,0a.58.58,0,1,1,1,.6l0,0A.57.57,0,0,1,20.15,10.68Zm5.63,0a.59.59,0,0,1-.49-.27l0,0a.57.57,0,0,1,.19-.79.58.58,0,0,1,.8.19v0a.58.58,0,0,1-.18.8A.68.68,0,0,1,25.78,10.67Zm-4.7-1.54a.51.51,0,0,1-.29-.08.58.58,0,0,1-.2-.79l0,0a.58.58,0,0,1,1,.6l0,0A.58.58,0,0,1,21.08,9.13Zm3.76,0a.55.55,0,0,1-.49-.28l0,0a.57.57,0,0,1,1-.6l0,0a.58.58,0,0,1-.19.8A.64.64,0,0,1,24.84,9.13ZM22,7.59a.55.55,0,0,1-.3-.09.57.57,0,0,1-.19-.79l0,0a.57.57,0,1,1,1,.59l0,0A.57.57,0,0,1,22,7.59Zm1.88,0a.58.58,0,0,1-.49-.28l0,0a.57.57,0,0,1,.19-.79.58.58,0,0,1,.8.2l0,0a.58.58,0,0,1-.2.79A.54.54,0,0,1,23.9,7.58Z"/></svg>