<svg id="Layer_1" data-name="Layer 1" xmlns="http://www.w3.org/2000/svg" xmlns:xlink="http://www.w3.org/1999/xlink" viewBox="0 0 42.51 42.51"><defs><style>.cls-1{fill:url(#linear-gradient);}.cls-2{fill:#1c88d1;}.cls-3{fill:url(#linear-gradient-2);}.cls-4{fill:#ad2d2d;}</style><linearGradient id="linear-gradient" x1="23" y1="2.25" x2="23" y2="43.75" gradientUnits="userSpaceOnUse"><stop offset="0.08" stop-color="#54defd"/><stop offset="0.9" stop-color="#4992e5"/></linearGradient><linearGradient id="linear-gradient-2" x1="23" y1="40.55" x2="23" y2="5.92" gradientUnits="userSpaceOnUse"><stop offset="0" stop-color="#a00"/><stop offset="0.04" stop-color="#ba1515"/><stop offset="0.11" stop-color="#cf3030"/><stop offset="0.19" stop-color="#df4646"/><stop offset="0.28" stop-color="#ec5757"/><stop offset="0.4" stop-color="#f56262"/><stop offset="0.56" stop-color="#fb6969"/><stop offset="1" stop-color="#fc6b6b"/></linearGradient></defs><title>insulineIcon</title><path class="cls-1" d="M23,43.75A20.75,20.75,0,1,1,43.75,23,20.78,20.78,0,0,1,23,43.75ZM23,8.26A14.74,14.74,0,1,0,37.74,23,14.75,14.75,0,0,0,23,8.26Z" transform="translate(-1.75 -1.75)"/><path class="cls-2" d="M23,2.75A20.25,20.25,0,1,1,2.75,23,20.27,20.27,0,0,1,23,2.75m0,35.49A15.24,15.24,0,1,0,7.76,23,15.26,15.26,0,0,0,23,38.24M23,1.75A21.25,21.25,0,1,0,44.25,23,21.24,21.24,0,0,0,23,1.75Zm0,35.49A14.24,14.24,0,1,1,37.24,23,14.25,14.25,0,0,1,23,37.24Z" transform="translate(-1.75 -1.75)"/><path class="cls-3" d="M23.12,40.55a9.94,9.94,0,0,1-1.34-.09A10.94,10.94,0,0,1,12,29.57a16.64,16.64,0,0,1,1.61-7.36c.94-2,2-4,3.24-6.11,1.48-2.54,3-5,4.55-7.61L23,5.92c.86,1.45,1.74,2.87,2.6,4.28a129.61,129.61,0,0,1,6.51,11.46c1.89,3.93,2.38,7.47,1.48,10.8a11.14,11.14,0,0,1-10.43,8.09Z" transform="translate(-1.75 -1.75)"/><path class="cls-4" d="M23,6.89l2.17,3.57a127.52,127.52,0,0,1,6.49,11.41c1.86,3.88,2.33,7.21,1.45,10.46a10.62,10.62,0,0,1-9.95,7.72A10.69,10.69,0,0,1,21.85,40a10.46,10.46,0,0,1-9.34-10.4,16,16,0,0,1,1.57-7.15c.92-2,2-3.94,3.21-6.07,1.48-2.53,3-5,4.55-7.6L23,6.89M23,5c-2.25,3.73-4.44,7.29-6.54,10.89-1.17,2-2.27,4.06-3.26,6.16a17,17,0,0,0-1.66,7.58A11.44,11.44,0,0,0,21.71,41a11.12,11.12,0,0,0,1.41.09A11.61,11.61,0,0,0,34,32.59c1.05-3.9.18-7.62-1.52-11.15C29.8,15.79,26.29,10.58,23,5Z" transform="translate(-1.75 -1.75)"/></svg>